<svg width="317" height="190" viewBox="0 0 317 190" fill="none" xmlns="http://www.w3.org/2000/svg">
<mask id="mask0_1074_11082" style="mask-type:alpha" maskUnits="userSpaceOnUse" x="0" y="0" width="317" height="190">
<rect width="317" height="190" rx="16" fill="#194BFB"/>
</mask>
<g mask="url(#mask0_1074_11082)">
<path d="M144 95.5C144 177.514 210.486 244 292.5 244C374.514 244 441 177.514 441 95.5C441 13.4857 374.514 -53 292.5 -53C210.486 -53 144 13.4857 144 95.5ZM399.611 95.5C399.611 154.656 351.656 202.611 292.5 202.611C233.344 202.611 185.389 154.656 185.389 95.5C185.389 36.344 233.344 -11.6115 292.5 -11.6115C351.656 -11.6115 399.611 36.344 399.611 95.5Z" fill="url(#paint0_linear_1074_11082)" fill-opacity="0.9"/>
<path d="M238 95C238 128.137 264.863 155 298 155C331.137 155 358 128.137 358 95C358 61.8629 331.137 35 298 35C264.863 35 238 61.8629 238 95ZM333.209 95C333.209 114.446 317.446 130.209 298 130.209C278.554 130.209 262.791 114.446 262.791 95C262.791 75.5544 278.554 59.7906 298 59.7906C317.446 59.7906 333.209 75.5544 333.209 95Z" fill="url(#paint1_linear_1074_11082)" fill-opacity="0.9"/>
</g>
<defs>
<linearGradient id="paint0_linear_1074_11082" x1="95.5" y1="95" x2="231.5" y2="95" gradientUnits="userSpaceOnUse">
<stop stop-color="white" stop-opacity="0.15"/>
<stop offset="1" stop-color="white" stop-opacity="0"/>
</linearGradient>
<linearGradient id="paint1_linear_1074_11082" x1="216.5" y1="95" x2="323" y2="95" gradientUnits="userSpaceOnUse">
<stop stop-color="white" stop-opacity="0.15"/>
<stop offset="1" stop-color="white" stop-opacity="0"/>
</linearGradient>
</defs>
</svg>
