<svg width="53" height="16" viewBox="0 0 53 16" fill="none" xmlns="http://www.w3.org/2000/svg">
<path d="M38.5279 0.655382C37.2962 0.213262 35.9942 -0.00859599 34.6833 0.00025473C30.4439 0.00025473 27.4499 2.10397 27.4287 5.12383C27.4022 7.34239 29.5563 8.59261 31.1858 9.33387C32.8577 10.096 33.4168 10.5763 33.4115 11.2575C33.4009 12.2937 32.0761 12.7635 30.844 12.7635C29.1509 12.7635 28.2262 12.5312 26.8034 11.9492L26.2761 11.7064L25.6746 15.183C26.7053 15.6059 28.5627 15.9687 30.481 16C34.988 16 37.9344 13.9093 37.9688 10.6963C38.0059 8.92409 36.8401 7.58512 34.3865 6.47845C32.8948 5.76068 31.9701 5.28043 31.9701 4.55222C31.9701 3.90753 32.7623 3.21847 34.4183 3.21847C35.5205 3.19221 36.6158 3.3959 37.6323 3.81618L38.0297 3.99105L38.6312 0.631891L38.5279 0.655382ZM49.529 0.282142H46.217C45.1863 0.282142 44.41 0.56142 43.9596 1.56891L37.5899 15.7834H42.0969L42.9977 13.4526L48.4983 13.4578C48.6282 14.0033 49.0256 15.7834 49.0256 15.7834H53L49.529 0.282142ZM21.3319 0.151638H25.627L22.9403 15.6607H18.6506L21.3319 0.146418V0.151638ZM10.4288 8.69963L10.874 10.8529L15.0709 0.282142H19.6203L12.8612 15.7625H8.3224L4.61296 2.6547C4.55288 2.43856 4.41179 2.25293 4.21817 2.13529C2.88118 1.45495 1.46456 0.938647 0 0.597959L0.0582911 0.2717H6.9711C7.90906 0.308241 8.6642 0.59796 8.91591 1.58457L10.4262 8.70746V8.69963H10.4288ZM44.2298 10.2813L45.9415 5.94339C45.9203 5.99037 46.2939 5.04813 46.5111 4.46609L46.8052 5.80506L47.7988 10.2787H44.2272V10.2813H44.2298Z" fill="white"/>
</svg>
