<svg width="1011" height="638" viewBox="0 0 1011 638" fill="none" xmlns="http://www.w3.org/2000/svg">
<mask id="mask0_946_84" style="mask-type:alpha" maskUnits="userSpaceOnUse" x="0" y="0" width="1011" height="638">
<rect width="1011" height="638" fill="#D9D9D9"/>
</mask>
<g mask="url(#mask0_946_84)">
</g>
<g clip-path="url(#clip0_946_84)">
<path opacity="0.25" d="M1207.57 410.126C1154.22 425.563 1098.98 390.401 1062.39 348.525C1025.8 306.65 998.18 255.86 953.418 222.898C858.333 152.953 707.627 197.294 650.303 300.619C592.98 403.981 623.855 542.543 707.324 626.105C790.756 709.667 916.376 741.833 1033.67 729.429C1136.74 718.543 1237.8 674.353 1308.29 598.226C1378.79 522.098 1415.64 412.97 1395.55 311.05C1383.78 251.346 1320.29 173.549 1290.74 250.132C1267.85 309.646 1290.59 386.115 1207.57 410.126Z" fill="#4A148C"/>
<path opacity="0.1" d="M599.301 63.1627C622.502 14.4806 601.845 -43.7916 553.163 -66.992C504.481 -90.1924 446.208 -69.5355 423.008 -20.8535C399.808 27.8286 420.465 86.1009 469.147 109.301C517.829 132.502 576.101 111.845 599.301 63.1627Z" fill="white"/>
<path opacity="0.25" d="M16.7819 114.64C-26.1199 75.1886 -52.1562 18.9994 -61.6179 -48.6469C-65.6217 -77.2002 -67.1428 -106.671 -78.2597 -133.143C-89.3766 -159.638 -113.087 -183.111 -141.114 -183C-175.516 -182.843 -200.769 -148.27 -209.962 -114.145C-229.288 -42.3813 -226.806 41.0857 -173.458 98.058C-131.92 142.432 -69.223 164.071 -32.4053 212.406C3.2493 259.196 9.73601 325.008 51.1839 366.763C73.0151 388.76 102.518 401.65 132.447 409.728C174.834 421.14 220.89 423.557 261.98 408.161C303.092 392.766 338.12 357.32 345.323 313.998C364.202 200.434 219.056 185.441 142.736 173.022C91.1108 164.608 49.1484 144.379 16.7819 114.64Z" fill="white"/>
</g>
<defs>
<clipPath id="clip0_946_84">
<rect width="1011" height="637.5" rx="44" fill="white"/>
</clipPath>
</defs>
</svg>
