<svg width="24" height="24" viewBox="0 0 24 24" fill="none" xmlns="http://www.w3.org/2000/svg">
<path d="M19 7C19 7.18 18.99 7.34999 18.97 7.51999C18.85 8.96999 18.21 10.28 17.24 11.24C16.16 12.33 14.66 13 13 13H9.86996C9.36996 13 8.94997 13.37 8.87997 13.86L8.11996 19.14C8.05996 19.53 7.77997 19.85 7.40997 19.95C7.31997 19.99 7.22997 20 7.12997 20H5.17996C4.55996 20 4.08997 19.45 4.18997 18.84L6.57995 4.51001C6.81995 3.06001 8.06998 2 9.53998 2H14C16.76 2 19 4.24 19 7Z" fill="#1A202C"/>
<path d="M21 11C21 12.38 20.44 13.63 19.54 14.54C18.63 15.44 17.38 16 16 16H13.85C13.36 16 12.94 16.35 12.86 16.84L12.14 21.16C12.06 21.65 11.64 22 11.15 22H8.21998C8.03998 22 7.87997 21.96 7.73997 21.88C7.51997 21.76 7.65998 21.47 7.89998 21.37C8.79998 21.08 9.45999 20.31 9.59999 19.35L10.24 14.93C10.28 14.68 10.49 14.5 10.73 14.5H13C15.01 14.5 16.9 13.72 18.3 12.31C19.13 11.49 19.75 10.48 20.11 9.39001C20.19 9.14001 20.52 9.09 20.63 9.32C20.87 9.84 21 10.4 21 11Z" fill="#1A202C"/>
</svg>
